<svg xmlns="http://www.w3.org/2000/svg" width="602" height="125.649" viewBox="0 0 602 125.649">
  <line id="Line_1" data-name="Line 1" y2="52" transform="translate(0.5 73.149)" fill="none" stroke="#707070" stroke-width="1"/>
  <line id="Line_2" data-name="Line 2" x2="601" transform="translate(0.5 125.149)" fill="none" stroke="#707070" stroke-width="1"/>
  <line id="Line_3" data-name="Line 3" y1="54" transform="translate(601.5 71.149)" fill="none" stroke="#707070" stroke-width="1"/>
  <line id="Line_4" data-name="Line 4" y1="28" x2="100" transform="translate(0.5 71.149)" fill="none" stroke="#707070" stroke-width="1"/>
  <line id="Line_5" data-name="Line 5" x2="146" y2="28" transform="translate(100.5 71.149)" fill="none" stroke="#707070" stroke-width="1"/>
  <line id="Line_6" data-name="Line 6" y1="57" x2="201" transform="translate(246.5 42.149)" fill="none" stroke="#707070" stroke-width="1"/>
  <line id="Line_7" data-name="Line 7" x2="154" y2="52" transform="translate(447.5 42.149)" fill="none" stroke="#707070" stroke-width="1"/>
  <line id="Line_8" data-name="Line 8" y1="23" x2="119" transform="translate(0.5 64.149)" fill="none" stroke="#707070" stroke-width="1"/>
  <line id="Line_9" data-name="Line 9" x2="142" y2="21" transform="translate(119.5 64.149)" fill="none" stroke="#707070" stroke-width="1"/>
  <line id="Line_10" data-name="Line 10" y1="53" x2="173" transform="translate(261.5 32.149)" fill="none" stroke="#707070" stroke-width="1"/>
  <line id="Line_11" data-name="Line 11" x2="167" y2="44" transform="translate(434.5 32.149)" fill="none" stroke="#707070" stroke-width="1"/>
  <line id="Line_12" data-name="Line 12" y1="24" x2="111" transform="translate(0.5 49.149)" fill="none" stroke="#707070" stroke-width="1"/>
  <line id="Line_13" data-name="Line 13" x2="135" y2="27" transform="translate(111.5 49.149)" fill="none" stroke="#707070" stroke-width="1"/>
  <line id="Line_14" data-name="Line 14" y1="51" x2="201" transform="translate(246.5 25.149)" fill="none" stroke="#707070" stroke-width="1"/>
  <line id="Line_15" data-name="Line 15" x2="154" y2="46" transform="translate(447.5 25.149)" fill="none" stroke="#707070" stroke-width="1"/>
  <line id="Line_16" data-name="Line 16" y1="31" x2="151" transform="translate(0.5 94.149)" fill="none" stroke="#707070" stroke-width="1"/>
  <line id="Line_17" data-name="Line 17" x2="129" y2="21" transform="translate(151.5 94.149)" fill="none" stroke="#707070" stroke-width="1"/>
  <line id="Line_18" data-name="Line 18" y1="30" x2="100" transform="translate(280.5 85.149)" fill="none" stroke="#707070" stroke-width="1"/>
  <line id="Line_19" data-name="Line 19" x2="221" y2="20" transform="translate(380.5 85.149)" fill="none" stroke="#707070" stroke-width="1"/>
  <line id="Line_20" data-name="Line 20" x2="34" y2="16" transform="translate(246.5 99.149)" fill="none" stroke="#707070" stroke-width="1"/>
  <line id="Line_21" data-name="Line 21" y1="43" x2="67" transform="translate(380.5 42.149)" fill="none" stroke="#707070" stroke-width="1"/>
  <line id="Line_22" data-name="Line 22" x2="51" y2="23" transform="translate(100.5 71.149)" fill="none" stroke="#707070" stroke-width="1"/>
  <line id="Line_23" data-name="Line 23" y1="7" x2="19" transform="translate(100.5 64.149)" fill="none" stroke="#707070" stroke-width="1"/>
  <line id="Line_24" data-name="Line 24" y1="14" x2="15" transform="translate(246.5 85.149)" fill="none" stroke="#707070" stroke-width="1"/>
  <line id="Line_25" data-name="Line 25" x2="13" y2="10" transform="translate(434.5 32.149)" fill="none" stroke="#707070" stroke-width="1"/>
  <line id="Line_26" data-name="Line 26" x1="8" y1="15" transform="translate(111.5 49.149)" fill="none" stroke="#707070" stroke-width="1"/>
  <line id="Line_27" data-name="Line 27" x2="15" y2="9" transform="translate(246.5 76.149)" fill="none" stroke="#707070" stroke-width="1"/>
  <line id="Line_28" data-name="Line 28" y1="7" x2="13" transform="translate(434.5 25.149)" fill="none" stroke="#707070" stroke-width="1"/>
  <line id="Line_29" data-name="Line 29" x2="219" y2="40" transform="translate(382.5 85.149)" fill="none" stroke="#707070" stroke-width="1"/>
  <line id="Line_31" data-name="Line 31" x2="322" y2="10" transform="translate(279.5 115.149)" fill="none" stroke="#707070" stroke-width="1"/>
  <line id="Line_32" data-name="Line 32" x1="279" y2="10" transform="translate(0.5 115.149)" fill="none" stroke="#707070" stroke-width="1"/>
  <g id="Ellipse_1" data-name="Ellipse 1" transform="translate(215.971) rotate(3)" fill="#fff" stroke="#fff" stroke-width="1">
    <circle cx="29.092" cy="29.092" r="29.092" stroke="none"/>
    <circle cx="29.092" cy="29.092" r="28.592" fill="none"/>
  </g>
</svg>
