<svg id="visual" viewBox="0 0 900 600" width="900" height="600" xmlns="http://www.w3.org/2000/svg" xmlns:xlink="http://www.w3.org/1999/xlink" version="1.1"><path d="M0 462L25 458.8C50 455.7 100 449.3 150 451.7C200 454 250 465 300 472.7C350 480.3 400 484.7 450 485.5C500 486.3 550 483.7 600 481.7C650 479.7 700 478.3 750 479.3C800 480.3 850 483.7 875 485.3L900 487L900 601L875 601C850 601 800 601 750 601C700 601 650 601 600 601C550 601 500 601 450 601C400 601 350 601 300 601C250 601 200 601 150 601C100 601 50 601 25 601L0 601Z" fill="#304648"></path><path d="M0 524L25 523.3C50 522.7 100 521.3 150 513C200 504.7 250 489.3 300 486.7C350 484 400 494 450 498.3C500 502.7 550 501.3 600 502.5C650 503.7 700 507.3 750 503C800 498.7 850 486.3 875 480.2L900 474L900 601L875 601C850 601 800 601 750 601C700 601 650 601 600 601C550 601 500 601 450 601C400 601 350 601 300 601C250 601 200 601 150 601C100 601 50 601 25 601L0 601Z" fill="#4f7174"></path><path d="M0 527L25 530C50 533 100 539 150 542.7C200 546.3 250 547.7 300 545.3C350 543 400 537 450 530.7C500 524.3 550 517.7 600 518.5C650 519.3 700 527.7 750 534C800 540.3 850 544.7 875 546.8L900 549L900 601L875 601C850 601 800 601 750 601C700 601 650 601 600 601C550 601 500 601 450 601C400 601 350 601 300 601C250 601 200 601 150 601C100 601 50 601 25 601L0 601Z" fill="#719ea3"></path><path d="M0 568L25 564.2C50 560.3 100 552.7 150 552.3C200 552 250 559 300 562.2C350 565.3 400 564.7 450 567.5C500 570.3 550 576.7 600 577.7C650 578.7 700 574.3 750 569.7C800 565 850 560 875 557.5L900 555L900 601L875 601C850 601 800 601 750 601C700 601 650 601 600 601C550 601 500 601 450 601C400 601 350 601 300 601C250 601 200 601 150 601C100 601 50 601 25 601L0 601Z" fill="#95cfd5"></path></svg>