<svg id="visual" viewBox="0 0 960 540" width="960" height="540" xmlns="http://www.w3.org/2000/svg" xmlns:xlink="http://www.w3.org/1999/xlink" version="1.1"><rect x="0" y="0" width="960" height="540" fill="#191919"></rect><path d="M0 277L22.8 290.2C45.7 303.3 91.3 329.7 137 338.7C182.7 347.7 228.3 339.3 274 328.8C319.7 318.3 365.3 305.7 411.2 298C457 290.3 503 287.7 548.8 300.3C594.7 313 640.3 341 686 341.5C731.7 342 777.3 315 823 301.8C868.7 288.7 914.3 289.3 937.2 289.7L960 290L960 541L937.2 541C914.3 541 868.7 541 823 541C777.3 541 731.7 541 686 541C640.3 541 594.7 541 548.8 541C503 541 457 541 411.2 541C365.3 541 319.7 541 274 541C228.3 541 182.7 541 137 541C91.3 541 45.7 541 22.8 541L0 541Z" fill="#1a1a17"></path><path d="M0 332L22.8 329.7C45.7 327.3 91.3 322.7 137 333.3C182.7 344 228.3 370 274 374.5C319.7 379 365.3 362 411.2 359.2C457 356.3 503 367.7 548.8 368.5C594.7 369.3 640.3 359.7 686 349.7C731.7 339.7 777.3 329.3 823 332C868.7 334.7 914.3 350.3 937.2 358.2L960 366L960 541L937.2 541C914.3 541 868.7 541 823 541C777.3 541 731.7 541 686 541C640.3 541 594.7 541 548.8 541C503 541 457 541 411.2 541C365.3 541 319.7 541 274 541C228.3 541 182.7 541 137 541C91.3 541 45.7 541 22.8 541L0 541Z" fill="#3b4138"></path><path d="M0 389L22.8 385.2C45.7 381.3 91.3 373.7 137 377.2C182.7 380.7 228.3 395.3 274 395.8C319.7 396.3 365.3 382.7 411.2 378.7C457 374.7 503 380.3 548.8 381.8C594.7 383.3 640.3 380.7 686 390.2C731.7 399.7 777.3 421.3 823 424.2C868.7 427 914.3 411 937.2 403L960 395L960 541L937.2 541C914.3 541 868.7 541 823 541C777.3 541 731.7 541 686 541C640.3 541 594.7 541 548.8 541C503 541 457 541 411.2 541C365.3 541 319.7 541 274 541C228.3 541 182.7 541 137 541C91.3 541 45.7 541 22.8 541L0 541Z" fill="#596e62"></path><path d="M0 429L22.8 434.7C45.7 440.3 91.3 451.7 137 455.8C182.7 460 228.3 457 274 449.3C319.7 441.7 365.3 429.3 411.2 432.5C457 435.7 503 454.3 548.8 463.7C594.7 473 640.3 473 686 472.7C731.7 472.3 777.3 471.7 823 467.8C868.7 464 914.3 457 937.2 453.5L960 450L960 541L937.2 541C914.3 541 868.7 541 823 541C777.3 541 731.7 541 686 541C640.3 541 594.7 541 548.8 541C503 541 457 541 411.2 541C365.3 541 319.7 541 274 541C228.3 541 182.7 541 137 541C91.3 541 45.7 541 22.8 541L0 541Z" fill="#759e97"></path><path d="M0 490L22.8 489.3C45.7 488.7 91.3 487.3 137 486C182.7 484.7 228.3 483.3 274 479.2C319.7 475 365.3 468 411.2 464.2C457 460.3 503 459.7 548.8 464.2C594.7 468.7 640.3 478.3 686 485.8C731.7 493.3 777.3 498.7 823 498.3C868.7 498 914.3 492 937.2 489L960 486L960 541L937.2 541C914.3 541 868.7 541 823 541C777.3 541 731.7 541 686 541C640.3 541 594.7 541 548.8 541C503 541 457 541 411.2 541C365.3 541 319.7 541 274 541C228.3 541 182.7 541 137 541C91.3 541 45.7 541 22.8 541L0 541Z" fill="#95cfd5"></path></svg>