<svg id="visual" viewBox="0 0 960 540" width="960" height="540" xmlns="http://www.w3.org/2000/svg" xmlns:xlink="http://www.w3.org/1999/xlink" version="1.1"><rect x="0" y="0" width="960" height="540" fill="#191919"></rect><path d="M0 107L22.8 109C45.7 111 91.3 115 137 115C182.7 115 228.3 111 274 106.7C319.7 102.3 365.3 97.7 411.2 99.3C457 101 503 109 548.8 110.7C594.7 112.3 640.3 107.7 686 102.8C731.7 98 777.3 93 823 96.8C868.7 100.7 914.3 113.3 937.2 119.7L960 126L960 0L937.2 0C914.3 0 868.7 0 823 0C777.3 0 731.7 0 686 0C640.3 0 594.7 0 548.8 0C503 0 457 0 411.2 0C365.3 0 319.7 0 274 0C228.3 0 182.7 0 137 0C91.3 0 45.7 0 22.8 0L0 0Z" fill="#1a1a17"></path><path d="M0 97L22.8 96C45.7 95 91.3 93 137 89.5C182.7 86 228.3 81 274 76.5C319.7 72 365.3 68 411.2 65.3C457 62.7 503 61.3 548.8 66.5C594.7 71.7 640.3 83.3 686 86C731.7 88.7 777.3 82.3 823 80.7C868.7 79 914.3 82 937.2 83.5L960 85L960 0L937.2 0C914.3 0 868.7 0 823 0C777.3 0 731.7 0 686 0C640.3 0 594.7 0 548.8 0C503 0 457 0 411.2 0C365.3 0 319.7 0 274 0C228.3 0 182.7 0 137 0C91.3 0 45.7 0 22.8 0L0 0Z" fill="#455045"></path><path d="M0 65L22.8 60.3C45.7 55.7 91.3 46.3 137 43.5C182.7 40.7 228.3 44.3 274 50.3C319.7 56.3 365.3 64.7 411.2 63.2C457 61.7 503 50.3 548.8 48C594.7 45.7 640.3 52.3 686 57.8C731.7 63.3 777.3 67.7 823 64.5C868.7 61.3 914.3 50.7 937.2 45.3L960 40L960 0L937.2 0C914.3 0 868.7 0 823 0C777.3 0 731.7 0 686 0C640.3 0 594.7 0 548.8 0C503 0 457 0 411.2 0C365.3 0 319.7 0 274 0C228.3 0 182.7 0 137 0C91.3 0 45.7 0 22.8 0L0 0Z" fill="#6c8e84"></path><path d="M0 34L22.8 33.2C45.7 32.3 91.3 30.7 137 28C182.7 25.3 228.3 21.7 274 24.7C319.7 27.7 365.3 37.3 411.2 41.3C457 45.3 503 43.7 548.8 41.3C594.7 39 640.3 36 686 31.7C731.7 27.3 777.3 21.7 823 22.5C868.7 23.3 914.3 30.7 937.2 34.3L960 38L960 0L937.2 0C914.3 0 868.7 0 823 0C777.3 0 731.7 0 686 0C640.3 0 594.7 0 548.8 0C503 0 457 0 411.2 0C365.3 0 319.7 0 274 0C228.3 0 182.7 0 137 0C91.3 0 45.7 0 22.8 0L0 0Z" fill="#95cfd5"></path></svg>